VIDEO INFO:


Format                           : AVI
Format/Info                      : Audio Video Interleave
Format profile                   : OpenDML
Format settings                  : rec
File size                        : 1.40 GiB
Duration                         : 1h 52mn
Overall bit rate                 : 1 772 Kbps
Movie name                       : VIDEO.Title1.DVDRip
Writing application              : AVI-Mux GUI 1.17.7, Aug  8 2006  20:59:17

Video
ID                               : 0
Format                           : MPEG-4 Visual
Format profile                   : Advanced Simple@L5
Format settings, BVOP            : 2
Format settings, QPel            : No
Format settings, GMC             : No warppoints
Format settings, Matrix          : Default (H.263)
Muxing mode                      : Packed bitstream
Codec ID                         : XVID
Codec ID/Hint                    : XviD
Duration                         : 1h 52mn
Bit rate                         : 1 382 Kbps
Width                            : 720 pixels
Height                           : 406 pixels
Display aspect ratio             : 16:9
Frame rate                       : 25.000 fps
Color space                      : YUV
Chroma subsampling               : 4:2:0
Bit depth                        : 8 bits
Scan type                        : Progressive
Compression mode                 : Lossy
Bits/(Pixel*Frame)               : 0.189
Stream size                      : 1.09 GiB (78%)
Writing library                  : XviD 1.2.1 (UTC 2008-12-04)

Audio
ID                               : 1
Format                           : AC-3
Format/Info                      : Audio Coding 3
Mode extension                   : CM (complete main)
Codec ID                         : 2000
Duration                         : 1h 52mn
Bit rate mode                    : Constant
Bit rate                         : 384 Kbps
Channel(s)                       : 6 channels
Channel positions                : Front: L C R, Side: L R, LFE
Sampling rate                    : 48.0 KHz
Bit depth                        : 16 bits
Compression mode                 : Lossy
Stream size                      : 310 MiB (22%)
Alignment                        : Aligned on interleaves
Interleave, duration             : 64 ms (1.60 video frames)
Interleave, preload duration     : 192 ms

Text
ID                               : 2
Stream size                      : 59.0 KiB (0%)
-------------------------------------

Autobiografische verfilming uit het bewogen leven van Anna Mae Bullock, beter bekend als Tina Turner. Ze wordt ontdekt door Ike Turner, die al volop bekendheid geniet in de muziekwereld. Hij houdt voornamelijk bezig met het grote geld en is zeker geen onbekende in de drugswereld. Hij wil dat Tina zich bij hem voegt in band en alhoewel alles rozengeur en maneschijn blijkt krijgt Tina al snel te maken met de keerzijde van hem. Ondanks alles trouwt Tina met Ike en krijgen ze kinderen. Roem en drugs krijgen bij Ike echter de boventoon en er ontpopt zich een ware agressor die Tina herhaaldelijk misbruikt. Als de bom uiteindelijk ontploft bekeerd Tina zich tot het Boeddhisme en het is dit geloof welke haar uiteindelijk de wilskracht geeft om als solo-artieste verder te gaan. Een adembenemende biografie, al zeg ik het zelf.

-Ondertiteling (nederlands) in film met de mogelijkheid deze aan/uit te zetten.
